<?xml version="1.0" encoding="utf-8"?>
<!-- Generator: Adobe Illustrator 24.1.2, SVG Export Plug-In . SVG Version: 6.00 Build 0)  -->
<svg version="1.1" id="Layer_1" xmlns="http://www.w3.org/2000/svg" xmlns:xlink="http://www.w3.org/1999/xlink" x="0px" y="0px"
	 viewBox="0 0 2000 892.5" enable-background="new 0 0 2000 892.5" xml:space="preserve">
<g>
	<path fill="#FFFFFF" d="M311.8,2619.8l-1.3-0.4c-77.4-23.1-153.6-64.7-226.5-123.9c-69.6-56.5-132.7-126-187.6-206.6
		c-54.5-80-97.6-165.9-128-255.3c-31.4-92.5-47.3-183.4-47.3-270.1v-488.9c0-86.8,15.9-177.7,47.3-270.1
		c30.4-89.4,73.4-175.3,128-255.3C-48.7,668.6,14.5,599.1,84,542.6c72.8-59.1,149-100.8,226.5-123.9l1.3-0.4V2619.8z M309.8,421.1
		C233,444.1,157.5,485.5,85.3,544.2C15.9,600.5-47.1,669.9-102,750.3c-54.4,79.9-97.4,165.6-127.7,254.8
		c-31.3,92.3-47.2,182.9-47.2,269.5v488.9c0,86.6,15.9,177.2,47.2,269.5c30.3,89.2,73.3,175,127.7,254.8
		c54.8,80.4,117.8,149.8,187.3,206.1c72.2,58.6,147.8,100.1,224.5,123.1V421.1z"/>
</g>
<g>
	<path fill="#FFFFFF" d="M1766.4,1421.1c-42.3,0-84.2-6.3-124.6-18.8c-41.4-12.8-80.3-31.7-115.7-56.3l0,0l-0.7-0.4
		c-1-0.8-2.1-1.5-3.1-2.3c-0.8-0.6-1.6-1.1-2.4-1.7l-1.2-0.9c-0.9-0.7-1.8-1.3-2.8-2c-94.3-68.3-196.8-123.3-304.5-163.3
		c-86.2-32.1-175.9-54.7-266.7-67.3c-154.6-21.5-260-6.2-261.1-6l-3,0.5l2.1-2.1C833.5,949.8,991.6,829.2,1152.6,742
		c126-68.2,253.4-115.9,378.7-141.8c94-19.5,169-22.7,215.3-21.9c50.3,0.8,78.7,6.3,78.9,6.4l0.6,0.1
		c54.3,7.9,105.7,25.9,152.8,53.5c49,28.7,91.1,66.7,125.1,112.7c33.7,45.6,57.5,96.5,70.7,151.2c12.7,52.8,15,107,6.9,161
		c-8.1,54-26.3,105.1-53.9,151.9c-28.7,48.4-66.3,90.1-112,123.8c-72.2,53.3-157.6,81.7-247,82.2
		C1767.9,1421.1,1767.2,1421.1,1766.4,1421.1z M1525.9,1343.4l0.6,0.4c35.4,24.7,74.4,43.7,115.8,56.5c41,12.6,83.4,18.9,126.3,18.7
		c89-0.5,174-28.8,245.9-81.8c45.4-33.6,82.9-75,111.4-123.2c27.5-46.6,45.6-97.4,53.7-151.1c8.1-53.7,5.8-107.6-6.9-160.2
		c-13.1-54.4-36.8-105.1-70.3-150.5c-33.9-45.8-75.7-83.6-124.5-112.2c-47.1-27.6-98.4-45.6-152.7-53.3l-1.3-0.2l0-0.1
		c-5.9-1-33.2-5.4-77.4-6.1c-46.2-0.7-121,2.4-214.8,21.8c-125.1,25.9-252.4,73.6-378.1,141.6c-160.1,86.7-317.3,206.4-467.3,355.9
		c18.1-2.3,118.1-13.1,258.6,6.4c90.9,12.6,180.8,35.3,267.1,67.4c107.9,40.1,210.5,95.2,305,163.6l0,0c0.9,0.7,1.8,1.3,2.7,2
		l1.2,0.9c0.8,0.6,1.6,1.1,2.3,1.7C1524.2,1342.3,1525,1342.9,1525.9,1343.4L1525.9,1343.4z"/>
</g>
<path fill="none" stroke="#FFFFFF" stroke-width="3" stroke-miterlimit="10" d="M-1709.8,1493.9c-184.7,0-341.4,119.5-397.3,285.3
	c0,0-0.1,0-0.1,0c-0.7,2.2-1.4,4.3-2.1,6.5c-0.5,1.6-1,3.1-1.5,4.7c-154.8,487.1-529.2,685.4-529.2,685.4
	c464.8,69.7,783.6-11.6,979.1-101.8c168.6-77.8,245.6-162.1,245.6-162.1l0,0c77.1-76,124.9-181.7,124.9-298.5
	C-1290.4,1681.7-1478.1,1493.9-1709.8,1493.9z"/>
<path fill="none" stroke="#FFFFFF" stroke-width="3" stroke-miterlimit="10" d="M-730.5-1920.2c0.5,1.6,1,3.1,1.5,4.7
	c0.7,2.2,1.4,4.3,2.1,6.4c0,0,0.1,0,0.1,0c55.9,165.8,212.6,285.3,397.3,285.3c231.6,0,419.4-187.8,419.4-419.4
	c0-116.8-47.8-222.5-124.9-298.5l0,0c0,0-77-84.4-245.6-162.2c-195.5-90.2-514.3-171.4-979.1-101.8
	C-1259.7-2605.6-885.3-2407.3-730.5-1920.2z"/>
<g>
	<path fill="#FFFFFF" d="M881.2,268.8c-49.8,0-98.9-13.1-143.1-38.8l-0.3-0.1c-0.7-0.4-70.2-36.7-150.5-132.5
		C531.5,30.7,483.7-48.5,445.2-138.1c-49.1-114.4-82.5-245.4-99.4-389.4l-0.4-3l2.1,2.2c17,18.2,68.5,63.9,141.7,106.9
		c53.7,31.6,111.1,57.3,170.5,76.6c74.3,24.1,152.1,38,231.1,41.3c0.8,0,1.5,0.1,2.3,0.1l1.1,0c0.6,0,1.3,0.1,2,0.1
		c0.9,0,1.8,0.1,2.6,0.1l0.8,0l0,0.1c59,3.7,114.6,25.3,161,62.3c47.5,38,81.1,89.3,97.1,148.2c20,73.8,10.1,150.9-27.8,217.2
		c-38,66.3-99.5,113.9-173.3,133.9C931.7,265.5,906.4,268.8,881.2,268.8z M737.6,227.5l1.2,0.6c66.3,38.6,143.5,48.7,217.4,28.7
		c73.2-19.9,134.4-67.1,172.1-133c37.7-65.9,47.5-142.5,27.7-215.7c-15.9-58.5-49.2-109.4-96.5-147.2c-46.2-37-101.8-58.4-160.6-62
		l-0.8,0l0-0.1c-0.6,0-1.3-0.1-1.9-0.1c-0.6,0-1.3-0.1-1.9-0.1l-1.1,0c-0.8,0-1.5-0.1-2.3-0.1c-79.3-3.4-157.3-17.3-231.7-41.4
		C599.5-362.2,542-388,488.2-419.7c-70.6-41.5-121.1-85.5-140-105c16.9,142.6,50.2,272.3,98.9,385.8c38.3,89.3,86,168.4,141.8,235
		C663.3,185,728.4,222.4,737.6,227.5L737.6,227.5z"/>
</g>
</svg>
